#!OML:ASF H:\Dans Jumps\Project 1\Capture day 1\Session 1\subject.ASF
:FULLY-SPECIFIED
:DEGREES
421
root 0.632513 17.3464 3.86005 3.74534 -3.32102 -0.340839
lowerback 4.32855 -1.00313 -0.741966
upperback 3.09559 -1.36569 1.6106
thorax 0.80959 -0.711184 2.11658
lowerneck -12.9486 0.96003 -1.37402
upperneck 28.9018 1.61025 0.259429
head 11.5332 0.593481 0.548049
rclavicle 2.38542e-014 -1.51076e-014
rhumerus -25.9136 -21.149 -73.6708
rradius 19.7568
rwrist 44.5218
rhand -25.0379 -28.6498
rfingers 7.12502
rthumb 1.47493 -58.6245
lclavicle 2.38542e-014 -1.51076e-014
lhumerus -10.0372 -2.32478 87.4108
lradius 18.4486
lwrist 5.79859
lhand -28.2291 -5.94342
lfingers 7.12502
lthumb -1.60723 24.0303
rfemur -25.0825 1.38399 18.9298
rtibia 32.4429
rfoot -9.38077 -0.987155
rtoes 17.8573
lfemur -23.5915 5.76348 -20.0116
ltibia 29.299
lfoot -7.90913 4.57753
ltoes -2.77825
422
root 0.63041 17.3567 3.89472 3.78471 -3.38686 -0.389314
lowerback 4.26554 -0.958771 -0.742929
upperback 3.07844 -1.30666 1.63087
thorax 0.825079 -0.681868 2.1349
lowerneck -12.9914 0.915732 -1.39626
upperneck 28.8457 1.5309 0.333811
head 11.5198 0.565215 0.568562
rclavicle 3.67752e-015 -4.77083e-015
rhumerus -26.5939 -22.827 -72.7706
rradius 19.0322
rwrist 46.2022
rhand -24.9644 -28.6601
rfingers 7.12502
rthumb 1.54592 -58.6342
lclavicle 3.67752e-015 -4.77083e-015
lhumerus -9.95446 -2.07238 87.4508
lradius 18.8257
lwrist 6.25639
lhand -28.4957 -6.12261
lfingers 7.12502
lthumb -1.86466 23.849
rfemur -24.8716 1.37505 18.9918
rtibia 32.1672
rfoot -9.46839 -0.931728
rtoes 17.2123
lfemur -23.3958 5.84201 -19.9481
ltibia 29.1238
lfoot -7.91255 4.5931
ltoes -2.69075
423
root 0.628105 17.3669 3.92927 3.83298 -3.45353 -0.441713
lowerback 4.19797 -0.910759 -0.73943
upperback 3.05693 -1.24257 1.64916
thorax 0.838226 -0.649877 2.14856
lowerneck -13.0442 0.873688 -1.40584
upperneck 28.778 1.45364 0.402173
head 11.5043 0.538621 0.58493
rclavicle 2.6339e-014 -7.15625e-015
rhumerus -27.3186 -24.5105 -71.836
rradius 18.3766
rwrist 47.8711
rhand -24.8883 -28.6627
rfingers 7.12502
rthumb 1.61941 -58.6363
lclavicle 2.6339e-014 -7.15625e-015
lhumerus -9.92789 -1.95141 87.5087
lradius 19.2695
lwrist 6.90702
lhand -28.7861 -6.3469
lfingers 7.12502
lthumb -2.14508 23.6221
rfemur -24.6716 1.36722 19.0567
rtibia 31.8908
rfoot -9.61356 -0.899654
rtoes 16.2868
lfemur -23.2149 5.91363 -19.8792
ltibia 28.9616
lfoot -7.92249 4.61429
ltoes -2.59316
424
root 0.625742 17.377 3.96364 3.89282 -3.52009 -0.514815
lowerback 4.12344 -0.860617 -0.710775
upperback 3.03131 -1.17485 1.66921
thorax 0.85035 -0.615652 2.14979
lowerneck -13.0947 0.833443 -1.41424
upperneck 28.6885 1.37727 0.475257
head 11.4798 0.513348 0.602748
rclavicle -1.22253e-014 4.77083e-015
rhumerus -28.0841 -26.1474 -70.889
rradius 17.8029
rwrist 49.4703
rhand -24.8069 -28.6576
rfingers 7.12502
rthumb 1.69803 -58.6306
lclavicle -1.22253e-014 4.77083e-015
lhumerus -9.9488 -1.95868 87.58
lradius 19.7602
lwrist 7.72126
lhand -29.1027 -6.68704
lfingers 7.12502
lthumb -2.45089 23.2786
rfemur -24.4835 1.363 19.1431
rtibia 31.6136
rfoot -9.80459 -0.88319
rtoes 15.1514
lfemur -23.0532 5.97724 -19.7872
ltibia 28.8128
lfoot -7.93302 4.64021
ltoes -2.4683
